<svg width="56.000000" height="38.000000" viewBox="0 0 56 38" fill="none" xmlns="http://www.w3.org/2000/svg" xmlns:xlink="http://www.w3.org/1999/xlink">
	<desc>
			Created with Pixso.
	</desc>
	<defs>
		<clipPath id="clip2081_68">
			<rect id="Frame" rx="0.000000" width="19.000000" height="19.000000" transform="translate(18.500000 9.500000)" fill="white" fill-opacity="0"/>
		</clipPath>
	</defs>
	<rect id="Frame" rx="0.000000" width="19.000000" height="19.000000" transform="translate(18.500000 9.500000)" fill="#FFFFFF" fill-opacity="0"/>
	<g clip-path="url(#clip2081_68)">
		<path id="Vector" d="M23.52 17.54C24.19 17.54 24.8 17.17 25.22 16.64C25.86 15.81 26.67 15.13 27.6 14.64C28.2 14.32 28.72 13.84 28.98 13.21C29.15 12.76 29.25 12.29 29.25 11.81L29.25 11.29C29.25 11.12 29.31 10.96 29.43 10.84C29.55 10.73 29.7 10.66 29.87 10.66C30.37 10.66 30.84 10.86 31.2 11.21C31.55 11.56 31.75 12.04 31.75 12.54C31.75 13.5 31.53 14.41 31.14 15.22C30.92 15.68 31.23 16.29 31.75 16.29L34.35 16.29C35.21 16.29 35.97 16.87 36.06 17.72C36.1 18.07 36.12 18.42 36.12 18.79C36.12 21.07 35.34 23.28 33.91 25.05C33.59 25.46 33.09 25.66 32.58 25.66L29.23 25.66C28.83 25.66 28.43 25.6 28.04 25.47L25.45 24.6C25.07 24.48 24.66 24.41 24.26 24.41L22.92 24.41C22.98 24.58 23.06 24.75 23.14 24.91C23.3 25.25 23.08 25.66 22.7 25.66L21.95 25.66C21.21 25.66 20.52 25.23 20.3 24.52C20.02 23.57 19.87 22.59 19.87 21.6C19.87 20.31 20.12 19.07 20.56 17.93C20.82 17.29 21.47 16.91 22.16 16.91L23.04 16.91C23.43 16.91 23.66 17.38 23.46 17.71C22.74 18.88 22.37 20.23 22.37 21.6C22.37 22.59 22.56 23.54 22.92 24.41L22.92 24.41M31.75 16.29L29.87 16.29" stroke="#131313" stroke-opacity="0.600000" stroke-width="1.500000" stroke-linejoin="round" stroke-linecap="round"/>
	</g>
	<rect id="Frame 1171276314" rx="7.500000" width="55.000000" height="37.000000" transform="translate(0.500000 0.500000)" stroke="#0E7A81" stroke-opacity="0.150000" stroke-width="1.000000"/>
</svg>
